<svg xmlns="http://www.w3.org/2000/svg" width="120" height="120" viewBox="0 0 120 120" fill="none">
  <!-- Pires -->
  <ellipse cx="60" cy="100" rx="40" ry="10" fill="#D9D9D9" stroke="#6c3428" stroke-width="2"/>
  
  <!-- Xícara -->
  <path d="M30 50C30 39 43.5 30 60 30C76.5 30 90 39 90 50V75C90 86 76.5 95 60 95C43.5 95 30 86 30 75V50Z" fill="#FFFFFF" stroke="#6c3428" stroke-width="2"/>
  
  <!-- Café na xícara -->
  <ellipse cx="60" cy="50" rx="28" ry="14" fill="#6c3428"/>
  
  <!-- Alça da xícara -->
  <path d="M90 55C95 55 100 60 100 65C100 70 95 75 90 75" stroke="#6c3428" stroke-width="3" stroke-linecap="round"/>
  
  <!-- Vapor do café -->
  <path d="M50 30C50 30 45 20 50 15" stroke="#cccccc" stroke-width="2" stroke-linecap="round"/>
  <path d="M60 30C60 30 65 15 60 10" stroke="#cccccc" stroke-width="2" stroke-linecap="round"/>
  <path d="M70 30C70 30 75 20 70 15" stroke="#cccccc" stroke-width="2" stroke-linecap="round"/>
</svg>